<mxfile host="app.diagrams.net" modified="2023-12-27T12:36:30.300Z" agent="Mozilla/5.0 (Windows NT 10.0; Win64; x64; rv:122.0) Gecko/20100101 Firefox/122.0" etag="IK4ShLB4LYkY3efIS-Cg" version="22.1.12" type="github">
  <diagram id="C5RBs43oDa-KdzZeNtuy" name="Page-1">
    <mxGraphModel dx="792" dy="1105" grid="1" gridSize="10" guides="1" tooltips="1" connect="1" arrows="1" fold="1" page="1" pageScale="1" pageWidth="827" pageHeight="1169" math="0" shadow="0">
      <root>
        <mxCell id="WIyWlLk6GJQsqaUBKTNV-0" />
        <mxCell id="WIyWlLk6GJQsqaUBKTNV-1" parent="WIyWlLk6GJQsqaUBKTNV-0" />
        <mxCell id="fo5o0ahnIPKXw_DBEkT7-70" value="" style="shape=card;whiteSpace=wrap;html=1;fillColor=#d5e8d4;strokeColor=#82b366;" parent="WIyWlLk6GJQsqaUBKTNV-1" vertex="1">
          <mxGeometry x="10" y="4" width="810" height="786" as="geometry" />
        </mxCell>
        <mxCell id="fo5o0ahnIPKXw_DBEkT7-33" value="" style="rounded=1;whiteSpace=wrap;html=1;fillColor=none;" parent="WIyWlLk6GJQsqaUBKTNV-1" vertex="1">
          <mxGeometry x="40" y="40" width="240" height="260" as="geometry" />
        </mxCell>
        <mxCell id="fo5o0ahnIPKXw_DBEkT7-34" value="" style="rounded=1;whiteSpace=wrap;html=1;fillColor=none;" parent="WIyWlLk6GJQsqaUBKTNV-1" vertex="1">
          <mxGeometry x="40" y="325" width="240" height="260" as="geometry" />
        </mxCell>
        <mxCell id="fo5o0ahnIPKXw_DBEkT7-35" value="" style="rounded=1;whiteSpace=wrap;html=1;fillColor=none;" parent="WIyWlLk6GJQsqaUBKTNV-1" vertex="1">
          <mxGeometry x="40" y="610" width="240" height="160" as="geometry" />
        </mxCell>
        <mxCell id="fo5o0ahnIPKXw_DBEkT7-38" value="" style="rounded=1;whiteSpace=wrap;html=1;fillColor=none;" parent="WIyWlLk6GJQsqaUBKTNV-1" vertex="1">
          <mxGeometry x="566" y="20" width="239" height="90" as="geometry" />
        </mxCell>
        <mxCell id="fo5o0ahnIPKXw_DBEkT7-49" value="" style="rounded=1;whiteSpace=wrap;html=1;fillColor=none;" parent="WIyWlLk6GJQsqaUBKTNV-1" vertex="1">
          <mxGeometry x="565" y="332" width="240" height="220" as="geometry" />
        </mxCell>
        <mxCell id="fo5o0ahnIPKXw_DBEkT7-48" value="" style="rounded=1;whiteSpace=wrap;html=1;fillColor=none;" parent="WIyWlLk6GJQsqaUBKTNV-1" vertex="1">
          <mxGeometry x="565" y="232" width="240" height="80" as="geometry" />
        </mxCell>
        <mxCell id="fo5o0ahnIPKXw_DBEkT7-40" value="" style="rounded=1;whiteSpace=wrap;html=1;fillColor=none;" parent="WIyWlLk6GJQsqaUBKTNV-1" vertex="1">
          <mxGeometry x="565" y="132" width="240" height="90" as="geometry" />
        </mxCell>
        <mxCell id="fo5o0ahnIPKXw_DBEkT7-0" value="Capex*" style="swimlane;fontStyle=1;align=center;verticalAlign=middle;childLayout=stackLayout;horizontal=1;startSize=29;horizontalStack=0;resizeParent=1;resizeParentMax=0;resizeLast=0;collapsible=0;marginBottom=0;html=1;whiteSpace=wrap;" parent="WIyWlLk6GJQsqaUBKTNV-1" vertex="1">
          <mxGeometry x="50" y="70" width="140" height="54" as="geometry" />
        </mxCell>
        <mxCell id="fo5o0ahnIPKXw_DBEkT7-2" value="&lt;div align=&quot;center&quot;&gt;gy_request&lt;/div&gt;" style="text;html=1;strokeColor=none;fillColor=none;align=center;verticalAlign=middle;spacingLeft=4;spacingRight=4;overflow=hidden;rotatable=0;points=[[0,0.5],[1,0.5]];portConstraint=eastwest;whiteSpace=wrap;" parent="fo5o0ahnIPKXw_DBEkT7-0" vertex="1">
          <mxGeometry y="29" width="140" height="25" as="geometry" />
        </mxCell>
        <mxCell id="fo5o0ahnIPKXw_DBEkT7-4" value="Hiring*" style="swimlane;fontStyle=1;align=center;verticalAlign=middle;childLayout=stackLayout;horizontal=1;startSize=29;horizontalStack=0;resizeParent=1;resizeParentMax=0;resizeLast=0;collapsible=0;marginBottom=0;html=1;whiteSpace=wrap;" parent="WIyWlLk6GJQsqaUBKTNV-1" vertex="1">
          <mxGeometry x="50" y="140" width="140" height="54" as="geometry" />
        </mxCell>
        <mxCell id="fo5o0ahnIPKXw_DBEkT7-6" value="&lt;div align=&quot;center&quot;&gt;gy_request&lt;/div&gt;" style="text;html=1;strokeColor=none;fillColor=none;align=center;verticalAlign=middle;spacingLeft=4;spacingRight=4;overflow=hidden;rotatable=0;points=[[0,0.5],[1,0.5]];portConstraint=eastwest;whiteSpace=wrap;" parent="fo5o0ahnIPKXw_DBEkT7-4" vertex="1">
          <mxGeometry y="29" width="140" height="25" as="geometry" />
        </mxCell>
        <mxCell id="fo5o0ahnIPKXw_DBEkT7-7" value="Consultancy*" style="swimlane;fontStyle=1;align=center;verticalAlign=middle;childLayout=stackLayout;horizontal=1;startSize=29;horizontalStack=0;resizeParent=1;resizeParentMax=0;resizeLast=0;collapsible=0;marginBottom=0;html=1;whiteSpace=wrap;" parent="WIyWlLk6GJQsqaUBKTNV-1" vertex="1">
          <mxGeometry x="50" y="210" width="140" height="54" as="geometry" />
        </mxCell>
        <mxCell id="fo5o0ahnIPKXw_DBEkT7-8" value="gy_request" style="text;html=1;strokeColor=none;fillColor=none;align=center;verticalAlign=middle;spacingLeft=4;spacingRight=4;overflow=hidden;rotatable=0;points=[[0,0.5],[1,0.5]];portConstraint=eastwest;whiteSpace=wrap;" parent="fo5o0ahnIPKXw_DBEkT7-7" vertex="1">
          <mxGeometry y="29" width="140" height="25" as="geometry" />
        </mxCell>
        <mxCell id="fo5o0ahnIPKXw_DBEkT7-10" value="Sourcing Decision*" style="swimlane;fontStyle=1;align=center;verticalAlign=middle;childLayout=stackLayout;horizontal=1;startSize=29;horizontalStack=0;resizeParent=1;resizeParentMax=0;resizeLast=0;collapsible=0;marginBottom=0;html=1;whiteSpace=wrap;" parent="WIyWlLk6GJQsqaUBKTNV-1" vertex="1">
          <mxGeometry x="50" y="360" width="140" height="54" as="geometry" />
        </mxCell>
        <mxCell id="fo5o0ahnIPKXw_DBEkT7-11" value="gy_request" style="text;html=1;strokeColor=none;fillColor=none;align=center;verticalAlign=middle;spacingLeft=4;spacingRight=4;overflow=hidden;rotatable=0;points=[[0,0.5],[1,0.5]];portConstraint=eastwest;whiteSpace=wrap;" parent="fo5o0ahnIPKXw_DBEkT7-10" vertex="1">
          <mxGeometry y="29" width="140" height="25" as="geometry" />
        </mxCell>
        <mxCell id="fo5o0ahnIPKXw_DBEkT7-12" value="Procurement Decision*" style="swimlane;fontStyle=1;align=center;verticalAlign=middle;childLayout=stackLayout;horizontal=1;startSize=29;horizontalStack=0;resizeParent=1;resizeParentMax=0;resizeLast=0;collapsible=0;marginBottom=0;html=1;whiteSpace=wrap;" parent="WIyWlLk6GJQsqaUBKTNV-1" vertex="1">
          <mxGeometry x="50" y="430" width="140" height="54" as="geometry" />
        </mxCell>
        <mxCell id="fo5o0ahnIPKXw_DBEkT7-13" value="gy_request" style="text;html=1;strokeColor=none;fillColor=none;align=center;verticalAlign=middle;spacingLeft=4;spacingRight=4;overflow=hidden;rotatable=0;points=[[0,0.5],[1,0.5]];portConstraint=eastwest;whiteSpace=wrap;" parent="fo5o0ahnIPKXw_DBEkT7-12" vertex="1">
          <mxGeometry y="29" width="140" height="25" as="geometry" />
        </mxCell>
        <mxCell id="fo5o0ahnIPKXw_DBEkT7-14" value="Procurement Contract *" style="swimlane;fontStyle=1;align=center;verticalAlign=middle;childLayout=stackLayout;horizontal=1;startSize=29;horizontalStack=0;resizeParent=1;resizeParentMax=0;resizeLast=0;collapsible=0;marginBottom=0;html=1;whiteSpace=wrap;" parent="WIyWlLk6GJQsqaUBKTNV-1" vertex="1">
          <mxGeometry x="50" y="623" width="140" height="54" as="geometry" />
        </mxCell>
        <mxCell id="fo5o0ahnIPKXw_DBEkT7-15" value="gy_request" style="text;html=1;strokeColor=none;fillColor=none;align=center;verticalAlign=middle;spacingLeft=4;spacingRight=4;overflow=hidden;rotatable=0;points=[[0,0.5],[1,0.5]];portConstraint=eastwest;whiteSpace=wrap;" parent="fo5o0ahnIPKXw_DBEkT7-14" vertex="1">
          <mxGeometry y="29" width="140" height="25" as="geometry" />
        </mxCell>
        <mxCell id="fo5o0ahnIPKXw_DBEkT7-16" value="Other Contract*" style="swimlane;fontStyle=1;align=center;verticalAlign=middle;childLayout=stackLayout;horizontal=1;startSize=29;horizontalStack=0;resizeParent=1;resizeParentMax=0;resizeLast=0;collapsible=0;marginBottom=0;html=1;whiteSpace=wrap;" parent="WIyWlLk6GJQsqaUBKTNV-1" vertex="1">
          <mxGeometry x="50" y="693" width="140" height="54" as="geometry" />
        </mxCell>
        <mxCell id="fo5o0ahnIPKXw_DBEkT7-17" value="gy_request" style="text;html=1;strokeColor=none;fillColor=none;align=center;verticalAlign=middle;spacingLeft=4;spacingRight=4;overflow=hidden;rotatable=0;points=[[0,0.5],[1,0.5]];portConstraint=eastwest;whiteSpace=wrap;" parent="fo5o0ahnIPKXw_DBEkT7-16" vertex="1">
          <mxGeometry y="29" width="140" height="25" as="geometry" />
        </mxCell>
        <mxCell id="fo5o0ahnIPKXw_DBEkT7-18" value="New Supplier" style="swimlane;fontStyle=1;align=center;verticalAlign=middle;childLayout=stackLayout;horizontal=1;startSize=29;horizontalStack=0;resizeParent=1;resizeParentMax=0;resizeLast=0;collapsible=0;marginBottom=0;html=1;whiteSpace=wrap;" parent="WIyWlLk6GJQsqaUBKTNV-1" vertex="1">
          <mxGeometry x="575" y="150" width="140" height="59" as="geometry" />
        </mxCell>
        <mxCell id="fo5o0ahnIPKXw_DBEkT7-52" value="gy_newsupplierrequest" style="text;html=1;strokeColor=none;fillColor=none;align=center;verticalAlign=middle;whiteSpace=wrap;rounded=0;" parent="fo5o0ahnIPKXw_DBEkT7-18" vertex="1">
          <mxGeometry y="29" width="140" height="30" as="geometry" />
        </mxCell>
        <mxCell id="fo5o0ahnIPKXw_DBEkT7-20" value="Credit Limit" style="swimlane;fontStyle=1;align=center;verticalAlign=middle;childLayout=stackLayout;horizontal=1;startSize=29;horizontalStack=0;resizeParent=1;resizeParentMax=0;resizeLast=0;collapsible=0;marginBottom=0;html=1;whiteSpace=wrap;" parent="WIyWlLk6GJQsqaUBKTNV-1" vertex="1">
          <mxGeometry x="645" y="242" width="140" height="54" as="geometry" />
        </mxCell>
        <mxCell id="fo5o0ahnIPKXw_DBEkT7-21" value="gy_creditlimit" style="text;html=1;strokeColor=none;fillColor=none;align=center;verticalAlign=middle;spacingLeft=4;spacingRight=4;overflow=hidden;rotatable=0;points=[[0,0.5],[1,0.5]];portConstraint=eastwest;whiteSpace=wrap;" parent="fo5o0ahnIPKXw_DBEkT7-20" vertex="1">
          <mxGeometry y="29" width="140" height="25" as="geometry" />
        </mxCell>
        <mxCell id="fo5o0ahnIPKXw_DBEkT7-22" value="Fresh Belgium Sourcing Contract" style="swimlane;fontStyle=1;align=center;verticalAlign=middle;childLayout=stackLayout;horizontal=1;startSize=29;horizontalStack=0;resizeParent=1;resizeParentMax=0;resizeLast=0;collapsible=0;marginBottom=0;html=1;whiteSpace=wrap;" parent="WIyWlLk6GJQsqaUBKTNV-1" vertex="1">
          <mxGeometry x="615" y="342" width="170" height="54" as="geometry" />
        </mxCell>
        <mxCell id="fo5o0ahnIPKXw_DBEkT7-23" value="gy_sourcingcontractrequest" style="text;html=1;strokeColor=none;fillColor=none;align=center;verticalAlign=middle;spacingLeft=4;spacingRight=4;overflow=hidden;rotatable=0;points=[[0,0.5],[1,0.5]];portConstraint=eastwest;whiteSpace=wrap;" parent="fo5o0ahnIPKXw_DBEkT7-22" vertex="1">
          <mxGeometry y="29" width="170" height="25" as="geometry" />
        </mxCell>
        <mxCell id="fo5o0ahnIPKXw_DBEkT7-24" value="Sales Decision*" style="swimlane;fontStyle=1;align=center;verticalAlign=middle;childLayout=stackLayout;horizontal=1;startSize=29;horizontalStack=0;resizeParent=1;resizeParentMax=0;resizeLast=0;collapsible=0;marginBottom=0;html=1;whiteSpace=wrap;" parent="WIyWlLk6GJQsqaUBKTNV-1" vertex="1">
          <mxGeometry x="50" y="500" width="140" height="54" as="geometry" />
        </mxCell>
        <mxCell id="fo5o0ahnIPKXw_DBEkT7-25" value="gy_request" style="text;html=1;strokeColor=none;fillColor=none;align=center;verticalAlign=middle;spacingLeft=4;spacingRight=4;overflow=hidden;rotatable=0;points=[[0,0.5],[1,0.5]];portConstraint=eastwest;whiteSpace=wrap;" parent="fo5o0ahnIPKXw_DBEkT7-24" vertex="1">
          <mxGeometry y="29" width="140" height="25" as="geometry" />
        </mxCell>
        <mxCell id="fo5o0ahnIPKXw_DBEkT7-28" value="Fresh Solutions Sourcing Contract" style="swimlane;fontStyle=1;align=center;verticalAlign=middle;childLayout=stackLayout;horizontal=1;startSize=29;horizontalStack=0;resizeParent=1;resizeParentMax=0;resizeLast=0;collapsible=0;marginBottom=0;html=1;whiteSpace=wrap;" parent="WIyWlLk6GJQsqaUBKTNV-1" vertex="1">
          <mxGeometry x="615" y="412" width="170" height="54" as="geometry" />
        </mxCell>
        <mxCell id="fo5o0ahnIPKXw_DBEkT7-53" value="gy_freshsolutionssourcingcontracts" style="text;html=1;strokeColor=none;fillColor=none;align=center;verticalAlign=middle;spacingLeft=4;spacingRight=4;overflow=hidden;rotatable=0;points=[[0,0.5],[1,0.5]];portConstraint=eastwest;whiteSpace=wrap;" parent="fo5o0ahnIPKXw_DBEkT7-28" vertex="1">
          <mxGeometry y="29" width="170" height="25" as="geometry" />
        </mxCell>
        <mxCell id="fo5o0ahnIPKXw_DBEkT7-30" value="Bakker Sourcing Contract" style="swimlane;fontStyle=1;align=center;verticalAlign=middle;childLayout=stackLayout;horizontal=1;startSize=29;horizontalStack=0;resizeParent=1;resizeParentMax=0;resizeLast=0;collapsible=0;marginBottom=0;html=1;whiteSpace=wrap;" parent="WIyWlLk6GJQsqaUBKTNV-1" vertex="1">
          <mxGeometry x="615" y="483" width="170" height="54" as="geometry" />
        </mxCell>
        <mxCell id="fo5o0ahnIPKXw_DBEkT7-31" value="gy_bakkersourcingcontracts" style="text;html=1;strokeColor=none;fillColor=none;align=center;verticalAlign=middle;spacingLeft=4;spacingRight=4;overflow=hidden;rotatable=0;points=[[0,0.5],[1,0.5]];portConstraint=eastwest;whiteSpace=wrap;" parent="fo5o0ahnIPKXw_DBEkT7-30" vertex="1">
          <mxGeometry y="29" width="170" height="25" as="geometry" />
        </mxCell>
        <mxCell id="fo5o0ahnIPKXw_DBEkT7-36" value="Other Contract*" style="swimlane;fontStyle=1;align=center;verticalAlign=middle;childLayout=stackLayout;horizontal=1;startSize=29;horizontalStack=0;resizeParent=1;resizeParentMax=0;resizeLast=0;collapsible=0;marginBottom=0;html=1;whiteSpace=wrap;" parent="WIyWlLk6GJQsqaUBKTNV-1" vertex="1">
          <mxGeometry x="572" y="30" width="140" height="54" as="geometry" />
        </mxCell>
        <mxCell id="fo5o0ahnIPKXw_DBEkT7-37" value="gy_request" style="text;html=1;strokeColor=none;fillColor=none;align=center;verticalAlign=middle;spacingLeft=4;spacingRight=4;overflow=hidden;rotatable=0;points=[[0,0.5],[1,0.5]];portConstraint=eastwest;whiteSpace=wrap;" parent="fo5o0ahnIPKXw_DBEkT7-36" vertex="1">
          <mxGeometry y="29" width="140" height="25" as="geometry" />
        </mxCell>
        <mxCell id="fo5o0ahnIPKXw_DBEkT7-42" value="Resources" style="text;html=1;strokeColor=none;fillColor=none;align=center;verticalAlign=middle;whiteSpace=wrap;rounded=0;rotation=-90;fontSize=30;" parent="WIyWlLk6GJQsqaUBKTNV-1" vertex="1">
          <mxGeometry x="210" y="152" width="60" height="30" as="geometry" />
        </mxCell>
        <mxCell id="fo5o0ahnIPKXw_DBEkT7-43" value="Commercial Decisions" style="text;html=1;strokeColor=none;fillColor=none;align=center;verticalAlign=middle;whiteSpace=wrap;rounded=0;rotation=-90;fontSize=30;" parent="WIyWlLk6GJQsqaUBKTNV-1" vertex="1">
          <mxGeometry x="210" y="442" width="60" height="30" as="geometry" />
        </mxCell>
        <mxCell id="fo5o0ahnIPKXw_DBEkT7-45" value="Contracts" style="text;html=1;strokeColor=none;fillColor=none;align=center;verticalAlign=middle;whiteSpace=wrap;rounded=0;rotation=-90;fontSize=30;" parent="WIyWlLk6GJQsqaUBKTNV-1" vertex="1">
          <mxGeometry x="210" y="683" width="60" height="30" as="geometry" />
        </mxCell>
        <mxCell id="fo5o0ahnIPKXw_DBEkT7-46" value="&lt;font style=&quot;font-size: 18px;&quot;&gt;Other Decisions&lt;/font&gt;" style="text;html=1;strokeColor=none;fillColor=none;align=center;verticalAlign=middle;whiteSpace=wrap;rounded=0;rotation=-90;fontSize=18;" parent="WIyWlLk6GJQsqaUBKTNV-1" vertex="1">
          <mxGeometry x="735" y="52" width="60" height="30" as="geometry" />
        </mxCell>
        <mxCell id="fo5o0ahnIPKXw_DBEkT7-47" value="New Supplier" style="text;html=1;strokeColor=none;fillColor=none;align=center;verticalAlign=middle;whiteSpace=wrap;rounded=0;rotation=-90;fontSize=19;" parent="WIyWlLk6GJQsqaUBKTNV-1" vertex="1">
          <mxGeometry x="735" y="162" width="60" height="30" as="geometry" />
        </mxCell>
        <mxCell id="fo5o0ahnIPKXw_DBEkT7-55" value="Credit Limit" style="text;html=1;strokeColor=none;fillColor=none;align=center;verticalAlign=middle;whiteSpace=wrap;rounded=0;rotation=-90;fontSize=21;" parent="WIyWlLk6GJQsqaUBKTNV-1" vertex="1">
          <mxGeometry x="565" y="257" width="60" height="30" as="geometry" />
        </mxCell>
        <mxCell id="fo5o0ahnIPKXw_DBEkT7-56" value="Sourcing Contracts" style="text;html=1;strokeColor=none;fillColor=none;align=center;verticalAlign=middle;whiteSpace=wrap;rounded=0;rotation=-90;fontSize=21;" parent="WIyWlLk6GJQsqaUBKTNV-1" vertex="1">
          <mxGeometry x="490" y="429" width="190" height="30" as="geometry" />
        </mxCell>
        <mxCell id="fo5o0ahnIPKXw_DBEkT7-57" value="" style="rounded=1;whiteSpace=wrap;html=1;fillColor=#f8cecc;strokeColor=#b85450;" parent="WIyWlLk6GJQsqaUBKTNV-1" vertex="1">
          <mxGeometry x="310" y="134" width="230" height="420" as="geometry" />
        </mxCell>
        <mxCell id="fo5o0ahnIPKXw_DBEkT7-59" value="&lt;h1&gt;Deprecated&lt;/h1&gt;&lt;p&gt;The below tables were moved to a new project &quot;Joiner/Leaver&quot;. the are visible in the current system for history consult&lt;br&gt;&lt;/p&gt;" style="text;html=1;strokeColor=none;fillColor=none;spacing=5;spacingTop=-20;whiteSpace=wrap;overflow=hidden;rounded=0;" parent="WIyWlLk6GJQsqaUBKTNV-1" vertex="1">
          <mxGeometry x="330" y="148" width="190" height="120" as="geometry" />
        </mxCell>
        <mxCell id="fo5o0ahnIPKXw_DBEkT7-62" value="Joiner Employee" style="swimlane;fontStyle=1;align=center;verticalAlign=middle;childLayout=stackLayout;horizontal=1;startSize=29;horizontalStack=0;resizeParent=1;resizeParentMax=0;resizeLast=0;collapsible=0;marginBottom=0;html=1;whiteSpace=wrap;" parent="WIyWlLk6GJQsqaUBKTNV-1" vertex="1">
          <mxGeometry x="355" y="287" width="140" height="54" as="geometry" />
        </mxCell>
        <mxCell id="fo5o0ahnIPKXw_DBEkT7-66" value="Leaver Employee" style="swimlane;fontStyle=1;align=center;verticalAlign=middle;childLayout=stackLayout;horizontal=1;startSize=29;horizontalStack=0;resizeParent=1;resizeParentMax=0;resizeLast=0;collapsible=0;marginBottom=0;html=1;whiteSpace=wrap;" parent="WIyWlLk6GJQsqaUBKTNV-1" vertex="1">
          <mxGeometry x="355" y="413" width="140" height="54" as="geometry" />
        </mxCell>
        <mxCell id="fo5o0ahnIPKXw_DBEkT7-68" value="Leaver Contingent" style="swimlane;fontStyle=1;align=center;verticalAlign=middle;childLayout=stackLayout;horizontal=1;startSize=29;horizontalStack=0;resizeParent=1;resizeParentMax=0;resizeLast=0;collapsible=0;marginBottom=0;html=1;whiteSpace=wrap;" parent="WIyWlLk6GJQsqaUBKTNV-1" vertex="1">
          <mxGeometry x="355" y="475" width="140" height="54" as="geometry" />
        </mxCell>
        <mxCell id="fo5o0ahnIPKXw_DBEkT7-64" value="Joiner Contingent" style="swimlane;fontStyle=1;align=center;verticalAlign=middle;childLayout=stackLayout;horizontal=1;startSize=29;horizontalStack=0;resizeParent=1;resizeParentMax=0;resizeLast=0;collapsible=0;marginBottom=0;html=1;whiteSpace=wrap;" parent="WIyWlLk6GJQsqaUBKTNV-1" vertex="1">
          <mxGeometry x="355" y="350" width="140" height="54" as="geometry" />
        </mxCell>
        <mxCell id="fo5o0ahnIPKXw_DBEkT7-71" value="Green&#39;Pass App" style="text;html=1;strokeColor=none;fillColor=none;align=center;verticalAlign=middle;whiteSpace=wrap;rounded=0;rotation=0;fontSize=30;" parent="WIyWlLk6GJQsqaUBKTNV-1" vertex="1">
          <mxGeometry x="285" y="4" width="260" height="100" as="geometry" />
        </mxCell>
        <mxCell id="fo5o0ahnIPKXw_DBEkT7-72" style="edgeStyle=orthogonalEdgeStyle;rounded=0;orthogonalLoop=1;jettySize=auto;html=1;exitX=0.5;exitY=1;exitDx=0;exitDy=0;exitPerimeter=0;" parent="WIyWlLk6GJQsqaUBKTNV-1" source="fo5o0ahnIPKXw_DBEkT7-70" target="fo5o0ahnIPKXw_DBEkT7-70" edge="1">
          <mxGeometry relative="1" as="geometry" />
        </mxCell>
        <mxCell id="fo5o0ahnIPKXw_DBEkT7-73" value="" style="shape=card;whiteSpace=wrap;html=1;fillColor=#f8cecc;strokeColor=#b85450;" parent="WIyWlLk6GJQsqaUBKTNV-1" vertex="1">
          <mxGeometry x="10" y="830" width="240" height="300" as="geometry" />
        </mxCell>
        <mxCell id="fo5o0ahnIPKXw_DBEkT7-74" value="" style="shape=card;whiteSpace=wrap;html=1;fillColor=#dae8fc;strokeColor=#6c8ebf;" parent="WIyWlLk6GJQsqaUBKTNV-1" vertex="1">
          <mxGeometry x="520" y="830" width="280" height="310" as="geometry" />
        </mxCell>
        <mxCell id="fo5o0ahnIPKXw_DBEkT7-75" value="Corporate Housekeeping - &lt;b&gt;DEPRECATED&lt;br&gt;&lt;/b&gt;" style="text;html=1;strokeColor=none;fillColor=none;align=center;verticalAlign=middle;whiteSpace=wrap;rounded=0;fontSize=22;" parent="WIyWlLk6GJQsqaUBKTNV-1" vertex="1">
          <mxGeometry x="50" y="950" width="160" height="50" as="geometry" />
        </mxCell>
        <mxCell id="fo5o0ahnIPKXw_DBEkT7-76" value="Office Reservation - &lt;b&gt;Frozen&lt;/b&gt;" style="text;html=1;strokeColor=none;fillColor=none;align=center;verticalAlign=middle;whiteSpace=wrap;rounded=0;fontSize=22;" parent="WIyWlLk6GJQsqaUBKTNV-1" vertex="1">
          <mxGeometry x="580" y="940" width="160" height="50" as="geometry" />
        </mxCell>
        <mxCell id="fo5o0ahnIPKXw_DBEkT7-78" value="Used during COVID19 Lockdown" style="text;html=1;strokeColor=none;fillColor=none;align=center;verticalAlign=middle;whiteSpace=wrap;rounded=0;" parent="WIyWlLk6GJQsqaUBKTNV-1" vertex="1">
          <mxGeometry x="555" y="1050" width="205" height="30" as="geometry" />
        </mxCell>
      </root>
    </mxGraphModel>
  </diagram>
</mxfile>
